<svg width="635" height="128" viewBox="0 0 635 128" fill="none" xmlns="http://www.w3.org/2000/svg">
<g clip-path="url(#clip0)">
<path d="M0 42.0269C0 25.4584 13.4315 12.0269 30 12.0269H583.306C599.875 12.0269 613.306 25.4584 613.306 42.0269V98.2003C613.306 114.769 599.875 128.2 583.306 128.2H30C13.4314 128.2 0 114.769 0 98.2003V42.0269Z" fill="#61988E"/>
<path d="M603.879 56.772C602.045 60.3886 596.896 60.4337 595 56.8496L575.272 19.5623C573.519 16.2493 575.9 12.2569 579.648 12.2242L618.45 11.8851C622.198 11.8523 624.648 15.8025 622.953 19.1456L603.879 56.772Z" fill="#61988E"/>
</g>
<defs>
<clipPath id="clip0">
<rect width="635" height="128" fill="white"/>
</clipPath>
</defs>
</svg>
