<?xml version="1.0" standalone="no"?>
<!DOCTYPE svg PUBLIC "-//W3C//DTD SVG 20010904//EN"
 "http://www.w3.org/TR/2001/REC-SVG-20010904/DTD/svg10.dtd">
<svg version="1.0" xmlns="http://www.w3.org/2000/svg"
 width="336.000000pt" height="109.000000pt" viewBox="0 0 336.000000 109.000000"
 preserveAspectRatio="xMidYMid meet">
<metadata>
Created by potrace 1.16, written by Peter Selinger 2001-2019
</metadata>
<g transform="translate(0.000000,109.000000) scale(0.100000,-0.100000)"
fill="#000000" stroke="none">
<path d="M1427 1054 c-20 -7 -37 -10 -37 -6 0 4 -4 3 -8 -3 -10 -15 -73 -48
-78 -42 -3 3 -20 -8 -37 -24 -18 -16 -44 -35 -59 -42 -16 -6 -28 -16 -28 -21
0 -5 -10 -18 -23 -30 -12 -11 -31 -34 -43 -49 l-20 -29 -65 27 c-35 14 -75 29
-88 31 -13 3 -32 9 -43 15 -10 5 -18 7 -18 3 0 -3 -7 -1 -15 6 -8 7 -15 10
-15 7 0 -3 -27 3 -61 13 -33 10 -67 16 -75 13 -8 -3 -14 -1 -14 3 0 5 -12 10
-27 10 -16 1 -71 5 -123 9 -66 5 -118 4 -170 -6 -81 -14 -89 -15 -92 -19 -2
-1 -10 -3 -18 -5 -36 -7 -45 -10 -50 -15 -3 -3 -25 -18 -50 -32 -25 -14 -57
-39 -71 -55 -31 -33 -74 -103 -64 -103 4 0 3 -6 -2 -12 -5 -7 -9 -40 -7 -74 2
-71 37 -147 90 -200 19 -19 34 -38 34 -42 0 -8 210 -111 237 -117 10 -2 38
-11 62 -19 24 -9 47 -13 52 -10 5 3 9 0 9 -6 0 -6 4 -8 10 -5 5 3 28 1 51 -5
22 -6 62 -13 87 -15 83 -7 348 -8 359 -2 6 4 18 4 26 1 9 -3 25 -1 36 6 18 9
25 6 51 -20 16 -16 32 -30 36 -30 3 0 23 -13 44 -30 46 -36 161 -89 208 -95
19 -2 44 -7 56 -11 48 -16 231 -10 316 9 47 11 91 20 98 20 6 0 12 4 12 8 0 4
10 11 23 15 12 3 47 21 79 39 31 19 59 31 62 28 3 -4 6 1 6 10 0 9 4 17 9 17
4 0 20 12 35 26 l26 27 67 -23 c38 -13 76 -23 86 -22 9 0 17 -2 17 -6 0 -4 10
-8 23 -8 12 -1 42 -5 67 -8 163 -24 342 -25 378 -3 6 5 16 6 21 3 5 -3 31 1
57 9 27 8 50 15 52 15 1 0 3 0 5 1 1 0 9 2 17 4 37 9 125 46 166 70 60 35 154
106 154 116 0 4 6 14 13 21 30 30 66 107 83 177 15 64 16 82 5 130 -7 31 -13
62 -14 69 0 6 -4 12 -9 12 -4 0 -8 7 -8 15 0 9 -20 38 -45 64 -25 26 -45 54
-45 61 0 7 -3 11 -6 7 -3 -3 -27 7 -52 23 -26 15 -65 34 -87 41 -22 8 -42 16
-45 19 -5 5 -29 9 -73 12 -15 0 -29 4 -31 7 -2 3 -52 5 -110 4 -198 -3 -371
-85 -432 -205 -13 -26 -21 -48 -17 -48 4 0 2 -5 -5 -12 -14 -14 -16 -54 -2
-63 5 -3 7 -11 4 -18 -11 -30 129 -171 150 -150 3 4 6 2 6 -3 0 -9 58 -18 120
-17 58 0 110 8 110 16 0 5 5 5 10 2 6 -3 10 -3 10 2 0 4 13 14 29 21 37 16 81
60 81 81 0 12 -4 10 -15 -6 -21 -30 -67 -61 -98 -67 -15 -2 -31 -8 -37 -11
-20 -12 -134 -14 -175 -2 -22 6 -47 12 -55 13 -8 2 -20 11 -28 21 -7 10 -16
16 -19 14 -4 -2 -21 12 -37 32 -23 30 -30 48 -32 89 -2 54 12 108 27 108 5 0
9 7 9 15 0 25 106 96 185 123 106 37 295 46 384 17 11 -3 33 -8 47 -11 52 -10
194 -85 194 -103 0 -4 10 -17 23 -31 24 -26 41 -59 39 -72 -1 -5 2 -8 6 -8 10
0 10 -2 15 -105 5 -121 -19 -181 -102 -266 -56 -56 -177 -128 -203 -121 -5 1
-8 -3 -8 -10 0 -6 -3 -9 -6 -5 -4 3 -20 -1 -36 -9 -16 -8 -33 -12 -38 -9 -6 3
-10 2 -10 -2 0 -5 -8 -9 -17 -10 -30 -3 -88 -12 -88 -13 0 -5 -90 -11 -165
-10 -84 0 -175 5 -175 9 0 2 -11 4 -25 5 -67 8 -109 17 -148 30 -23 8 -46 15
-50 16 -4 0 -22 5 -40 11 -32 10 -32 12 -18 34 8 12 24 51 35 85 46 140 16
280 -74 348 -24 19 -51 35 -59 36 -9 1 -19 5 -22 9 -13 12 -24 8 -24 -10 0 -9
3 -14 6 -10 12 11 68 -24 110 -68 30 -32 43 -57 52 -97 10 -46 9 -122 -2 -168
-6 -30 -53 -140 -59 -140 -20 0 -408 187 -426 206 -3 3 3 13 14 22 45 38 113
163 120 222 1 8 6 23 10 33 10 24 -1 85 -28 150 -14 31 -87 118 -87 102 0 -3
-21 6 -48 19 -41 21 -60 24 -148 23 -55 0 -117 -6 -137 -13z m198 -24 c0 -1
15 -3 34 -6 46 -6 131 -54 144 -81 6 -13 14 -23 18 -23 25 0 33 -157 10 -228
-14 -47 -49 -101 -93 -146 l-38 -39 -51 32 c-28 17 -56 31 -63 31 -6 0 -16 4
-21 9 -15 14 -370 191 -383 191 -7 0 -12 5 -12 11 0 5 -4 8 -9 5 -4 -3 -16 1
-26 8 -17 12 -15 16 25 59 23 26 46 44 51 41 5 -3 9 1 9 8 0 21 129 94 185
106 6 1 25 7 42 13 18 6 36 8 41 5 4 -2 14 -1 20 3 11 6 117 8 117 1z m-1020
-114 c22 -1 54 -6 70 -9 17 -4 46 -9 65 -12 19 -3 43 -8 52 -11 9 -3 26 -7 38
-9 30 -6 196 -64 225 -79 22 -11 22 -15 11 -42 -52 -117 -55 -132 -56 -239 -1
-55 4 -106 10 -112 1 -2 3 -6 4 -10 8 -34 32 -93 48 -116 11 -16 18 -31 14
-34 -5 -6 -137 -16 -206 -15 -65 0 -204 12 -310 26 -9 1 -21 6 -28 10 -7 4
-16 6 -18 3 -3 -3 -21 -1 -41 5 -19 5 -43 11 -52 13 -94 18 -235 91 -299 154
-34 34 -84 119 -81 138 1 5 0 11 -1 16 -2 8 -2 76 0 80 1 1 4 13 6 27 12 68
130 178 194 183 11 1 20 5 20 9 0 4 3 7 8 7 4 -1 9 0 12 1 14 5 49 11 83 14
21 2 41 6 45 11 6 6 35 5 187 -9z m593 -184 c125 -62 272 -143 272 -151 0 -4
6 -8 14 -8 7 0 50 -21 94 -47 l81 -47 -21 -25 c-12 -13 -28 -24 -35 -24 -7 0
-13 -4 -13 -9 0 -11 -140 -85 -140 -74 0 4 -4 3 -8 -2 -11 -16 -92 -48 -149
-60 -10 -2 -31 -8 -46 -14 -15 -6 -52 -13 -81 -16 l-53 -6 -27 45 c-14 25 -27
56 -28 70 -1 14 -6 26 -11 26 -5 0 -7 7 -4 15 4 8 2 17 -2 19 -5 3 -7 47 -5
98 2 51 4 101 5 111 0 9 3 17 7 17 4 0 9 12 10 27 1 15 5 29 10 32 4 3 8 13
10 21 5 19 22 40 34 40 5 0 43 -17 86 -38z m627 -353 c17 -10 87 -47 157 -82
l127 -64 -24 -24 c-13 -13 -31 -30 -39 -36 -29 -25 -142 -81 -176 -89 -47 -11
-49 -11 -55 -14 -3 -1 -9 -4 -15 -5 -5 -1 -11 -3 -12 -5 -16 -13 -220 -21
-277 -10 -128 23 -146 28 -217 62 -59 28 -158 106 -139 110 13 2 29 5 35 8 3
1 12 3 20 5 50 10 141 41 219 75 99 43 117 53 174 92 22 15 44 25 50 21 6 -3
7 -1 3 5 -3 6 2 15 11 21 18 10 51 -5 158 -70z"/>
</g>
</svg>
