<?xml version="1.0" standalone="no"?>
<!DOCTYPE svg PUBLIC "-//W3C//DTD SVG 20010904//EN"
 "http://www.w3.org/TR/2001/REC-SVG-20010904/DTD/svg10.dtd">
<svg version="1.0" xmlns="http://www.w3.org/2000/svg"
 width="835.000000pt" height="97.000000pt" viewBox="0 0 835.000000 97.000000"
 preserveAspectRatio="xMidYMid meet">
<metadata>
Created by potrace 1.16, written by Peter Selinger 2001-2019
</metadata>
<g transform="translate(0.000000,97.000000) scale(0.100000,-0.100000)"
fill="#000000" stroke="none">
<path d="M4478 805 c-56 -14 -138 -50 -148 -65 -3 -4 -25 -18 -50 -30 -24 -12
-80 -48 -124 -78 -108 -76 -233 -151 -280 -168 -21 -8 -57 -14 -79 -14 -33 0
-46 6 -74 36 -41 44 -55 37 -28 -14 46 -85 209 -78 328 12 19 14 37 26 42 26
4 0 55 33 114 74 58 40 129 85 156 100 28 15 64 35 80 46 75 47 222 63 314 33
56 -18 104 -69 116 -125 9 -37 31 -30 27 8 -5 53 -53 117 -107 144 -62 30
-198 37 -287 15z"/>
<path d="M3684 719 c-60 -23 -118 -74 -139 -121 -8 -19 -14 -25 -15 -15 0 23
-4 22 -70 -18 -56 -34 -97 -42 -145 -29 -17 4 -20 12 -17 40 9 77 -26 124 -93
124 -82 0 -115 -87 -52 -134 26 -19 30 -19 55 -5 15 8 28 25 30 37 4 28 -5 28
-26 1 -30 -36 -74 0 -52 42 15 27 64 25 84 -3 22 -32 20 -55 -9 -83 -40 -41
-82 -34 -167 27 -15 11 -53 7 -210 -17 l-193 -30 -1285 -5 -1285 -5 0 -35 0
-35 1290 -5 1290 -5 191 -30 192 -29 36 32 c49 43 114 46 145 6 25 -32 26 -52
5 -82 -27 -39 -84 -23 -84 24 0 31 31 40 52 15 20 -26 28 -26 28 -2 0 48 -64
67 -100 31 -48 -48 -6 -130 68 -130 66 0 100 49 89 131 l-5 39 56 0 c41 0 66
-6 99 -25 23 -14 43 -31 43 -38 0 -71 68 -157 149 -187 92 -35 264 -18 341 35
19 13 55 33 80 44 25 12 108 67 185 122 176 127 240 159 317 159 52 0 59 -3
80 -30 12 -16 25 -30 30 -30 19 0 6 44 -22 72 -30 29 -32 30 -113 27 -104 -5
-169 -35 -328 -154 -141 -105 -327 -201 -415 -215 -76 -12 -138 -1 -193 35
-46 31 -81 90 -74 126 3 15 0 30 -6 33 -15 10 -14 26 3 26 7 0 16 -13 19 -28
8 -41 95 -118 148 -132 51 -14 147 -7 210 15 74 26 227 117 281 167 60 54 225
140 314 163 88 23 161 20 220 -10 57 -28 79 -60 79 -115 0 -52 -18 -80 -73
-117 -54 -37 -129 -56 -178 -47 -32 6 -84 52 -84 75 0 5 -4 9 -10 9 -29 0 0
-81 38 -106 32 -21 135 -29 187 -15 59 16 133 66 157 106 11 20 23 33 26 30 3
-3 0 -11 -6 -17 -13 -13 -16 -48 -4 -48 4 0 31 16 59 35 45 30 60 35 111 35
l58 0 -4 -58 c-4 -52 -2 -60 23 -85 56 -55 155 -22 155 53 0 57 -67 92 -104
54 -16 -16 -22 -54 -8 -54 4 0 13 9 20 20 16 26 38 25 52 -1 26 -47 -53 -81
-84 -37 -21 30 -20 50 5 82 31 40 96 37 145 -6 l36 -32 192 29 191 30 1290 5
1290 5 0 35 0 35 -1300 6 c-1126 5 -1310 8 -1375 21 -41 9 -123 22 -182 29
l-108 13 -29 -28 c-20 -20 -43 -30 -74 -33 -39 -5 -49 -2 -71 20 -14 14 -26
37 -26 50 0 51 78 79 101 36 9 -18 7 -25 -11 -43 l-21 -21 -19 23 c-23 28 -32
28 -28 0 2 -12 15 -29 30 -37 25 -14 29 -14 55 5 36 27 41 71 13 107 -18 22
-30 27 -66 27 -36 0 -50 -5 -70 -27 -22 -24 -25 -35 -22 -80 3 -45 0 -53 -17
-57 -48 -13 -89 -5 -145 29 -32 19 -61 35 -65 35 -4 0 -16 11 -27 25 -37 47
-109 75 -191 75 -97 0 -170 -20 -291 -81 -107 -55 -151 -83 -206 -137 -45 -43
-218 -127 -294 -142 -66 -13 -131 -2 -177 30 -62 45 -79 159 -34 236 49 83
170 110 222 50 26 -30 43 -33 43 -8 0 25 -36 55 -88 75 -52 21 -55 21 -118 -4z"/>
</g>
</svg>
