<svg width="58" height="58" viewBox="0 0 58 58" fill="none" xmlns="http://www.w3.org/2000/svg">
<g clip-path="url(#clip0)">
<path d="M57.9995 29C58.0041 32.7254 57.2889 36.4166 55.8932 39.8707C55.8898 39.8784 55.8872 39.8853 55.8838 39.893V39.8939C54.9456 42.2067 53.7116 44.3882 52.2124 46.3837C51.9233 46.7698 51.625 47.1479 51.3175 47.518C51.2051 47.6535 51.091 47.7882 50.9769 47.9212C50.3892 48.6033 49.7709 49.2568 49.1219 49.8817C48.9709 50.0276 48.8182 50.1717 48.6638 50.3141C48.6277 50.3476 48.5917 50.3802 48.5557 50.4137C47.7998 51.1043 47.008 51.7544 46.1833 52.3613C45.6299 52.7706 45.0619 53.1592 44.4794 53.5273C44.3515 53.6088 44.2228 53.6889 44.0933 53.7675C43.8685 53.9048 43.6417 54.039 43.4129 54.1699C43.1143 54.3415 42.812 54.5077 42.506 54.6684C42.3824 54.7345 42.258 54.798 42.1336 54.8615C41.9517 54.955 41.769 55.0451 41.5845 55.1335C41.5528 55.1489 41.521 55.1643 41.4893 55.1789C41.3692 55.2373 41.2473 55.2939 41.1255 55.3505C39.5388 56.0824 37.8886 56.6679 36.1955 57.1C36.1861 57.1025 36.1775 57.1043 36.168 57.1068C36.0574 57.1352 35.9458 57.1626 35.8343 57.1892C35.7511 57.2098 35.667 57.2295 35.5829 57.2484C35.5725 57.2518 35.5619 57.2544 35.5511 57.2561C35.3787 57.2965 35.2062 57.3351 35.0321 57.3702C34.9343 57.3908 34.8364 57.4114 34.7386 57.4312C34.6794 57.444 34.6194 57.4552 34.5602 57.4663C34.4855 57.4809 34.4117 57.4946 34.3371 57.5092C34.2959 57.5178 34.2547 57.5247 34.2127 57.5315C34.1183 57.5487 34.0239 57.5659 33.9304 57.5822C33.7708 57.6096 33.6095 57.6362 33.4491 57.6602C33.3324 57.6783 33.2166 57.6954 33.0999 57.7117C32.9626 57.7314 32.8253 57.7495 32.6872 57.7666C32.6494 57.7726 32.6117 57.7769 32.5739 57.7812C32.525 57.7872 32.4761 57.7932 32.4272 57.7992C32.3285 57.8112 32.2299 57.8224 32.1303 57.8327C32.0789 57.8387 32.0282 57.8438 31.9768 57.849C31.879 57.8593 31.7812 57.8687 31.6833 57.8773C31.5572 57.8893 31.4311 57.8996 31.3041 57.9099C31.1497 57.9219 30.9961 57.9331 30.8408 57.9425C30.7413 57.9485 30.6417 57.9545 30.5414 57.9597C30.2857 57.9734 30.03 57.9828 29.7726 57.9897C29.6448 57.9931 29.5161 57.9957 29.3874 57.9974H29.3848C29.2569 57.9991 29.1282 58 28.9995 58C27.6953 58.0005 26.3925 57.9134 25.1 57.7392C24.1519 57.6122 23.219 57.44 22.3012 57.2227C22.2643 57.2141 22.2275 57.2055 22.1914 57.1961C22.0988 57.1746 22.0069 57.1515 21.9151 57.1283C21.8336 57.1077 21.753 57.0862 21.6715 57.0648C19.5708 56.5181 17.5387 55.7355 15.6141 54.7319C15.6046 54.7268 15.5943 54.7216 15.5849 54.7165C15.5291 54.6873 15.4742 54.659 15.4193 54.629C15.2983 54.5655 15.1779 54.5008 15.0581 54.4351C14.376 54.0601 13.7113 53.6591 13.0641 53.2322C12.8977 53.1232 12.733 53.0125 12.5699 52.9001C12.5176 52.8641 12.4661 52.828 12.4146 52.792C12.3606 52.7543 12.3065 52.7165 12.2533 52.6788C12.1118 52.5784 11.9711 52.4768 11.8312 52.3742C11.2521 51.9486 10.6901 51.5022 10.1453 51.0349C8.21415 49.381 6.50771 47.4816 5.0694 45.385C4.56748 44.654 4.09902 43.8995 3.66402 43.1216C1.25333 38.8059 -0.00846949 33.9434 -0.000450295 29C-0.000450295 12.9839 12.9835 0 28.9995 0C45.0156 0 57.9995 12.9839 57.9995 29Z" fill="#C56E3F"/>
<path opacity="0.2" d="M33.6631 57.1961C33.7558 57.1746 33.8476 57.1514 33.9394 57.1283C34.0209 57.1077 34.1016 57.0862 34.1831 57.0648C34.1874 56.894 34.1934 56.7062 34.1994 56.5028C34.25 54.9104 34.3693 52.3467 34.6507 49.258C34.6661 49.0924 34.6816 48.9256 34.697 48.7577C34.7974 47.711 34.915 46.6102 35.0557 45.4691C35.06 45.4313 35.0651 45.3944 35.0694 45.3567C35.1835 44.4318 35.3131 43.482 35.4589 42.5142C35.561 41.8372 35.6714 41.1528 35.7901 40.461C35.7987 40.413 35.8073 40.364 35.8158 40.316C35.8502 40.1161 35.8853 39.917 35.9214 39.7163C36.0218 39.1577 36.129 38.5957 36.2414 38.0338C36.6369 36.0569 37.108 34.0681 37.67 32.1334C38.2408 30.1269 38.9439 28.1603 39.7746 26.2467C40.4189 24.7601 41.1863 23.33 42.0689 21.9714C42.0817 21.9516 42.0946 21.9327 42.1075 21.913C43.2357 20.2133 44.5253 18.7711 45.9976 17.6926L45.6921 17.2756C44.2816 18.3095 42.9878 19.6851 41.8106 21.4025C41.8046 21.4111 41.7994 21.4188 41.7934 21.4274C40.9082 22.7401 40.1356 24.1252 39.4837 25.568C38.6109 27.498 37.8747 29.4868 37.2804 31.5199C36.7176 33.4092 36.2128 35.4561 35.7661 37.6605C35.6091 38.437 35.4592 39.2327 35.3165 40.0475C35.2925 40.1864 35.2684 40.3254 35.2444 40.4653C35.2444 40.467 35.2436 40.4696 35.2436 40.4713C35.2067 40.6858 35.1715 40.9003 35.1355 41.1174C35.0462 41.6639 34.9621 42.2062 34.8832 42.7441C34.7614 43.5729 34.6513 44.3874 34.5529 45.1877C34.5203 45.4519 34.4888 45.7142 34.4585 45.9744C34.4156 46.3417 34.375 46.704 34.3367 47.0615C34.2826 47.5591 34.2331 48.0462 34.1882 48.5227L34.1754 48.6539C34.1685 48.7294 34.1616 48.8049 34.1548 48.8796C33.8064 52.6367 33.6975 55.6714 33.6631 57.1961Z" fill="black"/>
<path opacity="0.2" d="M40.2405 54.7319C40.25 54.7268 40.2603 54.7216 40.2697 54.7165C40.4465 54.6247 40.6215 54.5312 40.7965 54.4351C40.854 53.7504 40.9312 52.9979 41.0325 52.2069C41.0539 52.0439 41.0754 51.8783 41.0994 51.7118C41.1114 51.6226 41.1243 51.5325 41.1371 51.4416C41.2384 50.7449 41.3585 50.0259 41.5026 49.3035C42.0886 46.3554 43.0616 43.3422 44.6772 41.482C44.7638 41.3817 44.8522 41.2856 44.944 41.192C45.1715 40.9556 45.4186 40.7389 45.6827 40.5443L45.3773 40.1281C45.0086 40.4008 44.6693 40.7111 44.3649 41.0539C44.2576 41.1732 44.1529 41.2973 44.0508 41.4263C42.564 43.2975 41.6356 46.068 41.0573 48.811C40.9063 49.5265 40.7794 50.2412 40.6713 50.9371C40.6438 51.1189 40.6175 51.2991 40.5923 51.4776C40.425 52.6565 40.3143 53.7701 40.2405 54.7319Z" fill="black"/>
<path opacity="0.2" d="M48.883 17.6806C50.3087 17.6806 51.4645 16.5248 51.4645 15.099C51.4645 13.6733 50.3087 12.5175 48.883 12.5175C47.4572 12.5175 46.3014 13.6733 46.3014 15.099C46.3014 16.5248 47.4572 17.6806 48.883 17.6806Z" fill="black"/>
<path opacity="0.2" d="M48.0515 39.9033C49.4773 39.9033 50.6331 38.7475 50.6331 37.3217C50.6331 35.896 49.4773 34.7402 48.0515 34.7402C46.6258 34.7402 45.47 35.896 45.47 37.3217C45.47 38.7475 46.6258 39.9033 48.0515 39.9033Z" fill="black"/>
<path opacity="0.2" d="M38.6339 19.4353C39.1814 22.5238 37.9729 25.3204 37.9729 25.3204C37.9729 25.3204 35.8768 23.1095 35.3294 20.021C34.7819 16.9325 35.9904 14.1358 35.9904 14.1358C35.9904 14.1358 38.0865 16.3467 38.6339 19.4353Z" fill="black"/>
<path opacity="0.2" d="M47.2136 26.7668C44.2677 27.844 41.3075 27.1527 41.3075 27.1527C41.3075 27.1527 43.1235 24.7149 46.0694 23.6377C49.0153 22.5605 51.9755 23.2518 51.9755 23.2518C51.9755 23.2518 50.1595 25.6896 47.2136 26.7668Z" fill="black"/>
<path opacity="0.2" d="M47.7131 46.4457C45.6483 47.2007 43.5705 46.7082 43.5705 46.7082C43.5705 46.7082 44.8405 44.9915 46.9053 44.2365C48.9701 43.4815 51.0479 43.974 51.0479 43.974C51.0479 43.974 49.778 45.6907 47.7131 46.4457Z" fill="black"/>
<path d="M37.7481 46.0113L37.8528 46.0654C37.8425 46.1769 37.8176 46.2456 37.7481 46.0113Z" fill="#2F2E41"/>
<path d="M37.8862 46.0474C37.887 46.0594 37.8887 46.0722 37.8896 46.0843L37.8527 46.0654C37.8536 46.0542 37.8544 46.0422 37.8561 46.0302C37.8647 45.8801 37.8544 45.7025 37.8862 46.0474Z" fill="#2F2E41"/>
<path d="M26.742 41.9427C34.5231 41.9427 40.831 35.6349 40.831 27.8538C40.831 20.0727 34.5231 13.7649 26.742 13.7649C18.9609 13.7649 12.6531 20.0727 12.6531 27.8538C12.6531 35.6349 18.9609 41.9427 26.742 41.9427Z" fill="#2F2E41"/>
<path d="M27.9019 41.3685C32.6141 41.3685 36.4341 37.5485 36.4341 32.8363C36.4341 28.1241 32.6141 24.3041 27.9019 24.3041C23.1896 24.3041 19.3696 28.1241 19.3696 32.8363C19.3696 37.5485 23.1896 41.3685 27.9019 41.3685Z" fill="#D0CDE1"/>
<path d="M47.384 49.1893L47.3737 49.1919L45.3892 49.6681L41.2571 50.6599L40.6934 50.7955L34.4095 52.303L33.8759 52.4317L18.6303 56.0901C17.5997 55.6959 16.5927 55.2424 15.6145 54.7319C15.605 54.7268 15.5947 54.7216 15.5853 54.7165C15.5295 54.6873 15.4746 54.659 15.4197 54.629C15.2987 54.5655 15.1783 54.5008 15.0585 54.4351C14.3764 54.0601 13.7117 53.6591 13.0645 53.2322C12.8981 53.1232 12.7334 53.0125 12.5703 52.9001C12.518 52.8641 12.4665 52.828 12.415 52.792C12.361 52.7543 12.3069 52.7165 12.2537 52.6788C12.1122 52.5784 11.9715 52.4768 11.8316 52.3742C13.3125 49.6827 16.8388 47.8938 20.3651 46.9148C23.0266 46.1752 23.6118 43.7445 23.5612 41.5815C23.5483 41.0882 23.5065 40.596 23.4359 40.1075C23.3284 39.3301 23.1573 38.5628 22.9245 37.8132L31.4572 38.0981L32.3375 40.1264C32.3134 40.3492 32.3057 40.5734 32.3143 40.7973C32.3813 42.461 33.4083 43.5369 34.6755 44.231C34.8403 44.3211 35.0093 44.4052 35.1809 44.4833C37.2589 45.4279 39.705 45.4922 39.705 45.4922C40.4499 45.4099 41.2023 45.424 41.9435 45.5343C42.1237 45.5617 42.2987 45.5946 42.4686 45.633C43.4605 45.8546 44.3975 46.274 45.2236 46.8659C45.5392 47.0904 45.8377 47.3378 46.1168 47.6063C46.6128 48.0706 47.0396 48.6037 47.384 49.1893Z" fill="#D0CDE1"/>
<path d="M48.6642 50.3141C48.6282 50.3476 48.5921 50.3802 48.5561 50.4137C47.8003 51.1043 47.0084 51.7544 46.1838 52.3613C45.6303 52.7706 45.0624 53.1592 44.4798 53.5273C44.3519 53.6088 44.2232 53.6889 44.0937 53.7675C43.8689 53.9048 43.6421 54.039 43.4133 54.1699C43.1147 54.3415 42.8124 54.5077 42.5064 54.6684C42.3829 54.7345 42.2585 54.798 42.134 54.8615C41.9522 54.955 41.7694 55.0451 41.5849 55.1335C41.5532 55.1489 41.5214 55.1643 41.4897 55.1789L41.1268 54.8778L45.3893 49.6681L46.2464 48.6205C46.2464 48.6205 46.5887 48.6205 47.3738 49.1919C47.8077 49.5148 48.2177 49.8687 48.6007 50.2506C48.6213 50.2721 48.6427 50.2927 48.6642 50.3141Z" fill="#D0CDE1"/>
<path d="M48.6042 50.2558C48.5926 50.3097 48.5766 50.3625 48.5561 50.4137C47.8003 51.1043 47.0084 51.7545 46.1838 52.3613C45.4683 52.6192 44.7261 52.7957 43.971 52.8873C43.971 52.8873 44.0354 53.2099 44.0937 53.7676C43.8689 53.9048 43.6422 54.039 43.4134 54.17C43.1148 54.3416 42.8125 54.5077 42.5065 54.6685C42.3829 54.7345 42.2585 54.798 42.1341 54.8615C41.9522 54.955 41.7695 55.0451 41.585 55.1335C41.5532 55.1489 41.5215 55.1644 41.4897 55.179C41.3696 55.2373 41.2478 55.2939 41.126 55.3506C39.5392 56.0824 37.8891 56.668 36.196 57.1C36.1865 57.1026 36.1779 57.1043 36.1685 57.1069C36.0578 57.1352 35.9463 57.1626 35.8348 57.1892C35.7515 57.2098 35.6674 57.2296 35.5834 57.2484C35.573 57.2518 35.5624 57.2544 35.5516 57.2562C35.3792 57.2965 35.2067 57.3351 35.0325 57.3703C34.9347 57.3909 34.8369 57.4114 34.7391 57.4312C34.6799 57.4441 34.6198 57.4552 34.5606 57.4664C34.486 57.4809 34.4122 57.4947 34.3376 57.5093C34.2964 57.5178 34.2552 57.5247 34.2132 57.5316C34.1188 57.5487 34.0244 57.5659 33.9309 57.5822C33.7713 57.6096 33.61 57.6362 33.4495 57.6603C33.3329 57.6783 33.217 57.6954 33.1003 57.7117C32.9631 57.7315 32.8258 57.7495 32.6877 57.7667C32.6499 57.7727 32.6122 57.777 32.5744 57.7812C32.5255 57.7872 32.4766 57.7932 32.4277 57.7993C32.329 57.8113 32.2303 57.8224 32.1308 57.8327C32.0793 57.8387 32.0287 57.8439 31.9772 57.849C31.8794 57.8593 31.7816 57.8688 31.6838 57.8773C31.5577 57.8893 31.4316 57.8996 31.3046 57.9099C31.1501 57.922 30.9966 57.9331 30.8413 57.9425C30.7417 57.9486 30.6422 57.9546 30.5418 57.9597C30.2861 57.9734 30.0305 57.9829 29.7731 57.9897C29.6452 57.9932 29.5165 57.9957 29.3878 57.9975H29.3853C29.2574 57.9992 29.1287 58 29 58C27.6958 58.0006 26.393 57.9134 25.1005 57.7392C24.1524 57.6122 23.2195 57.4401 22.3017 57.2227C22.2648 57.2141 22.2279 57.2055 22.1919 57.1961C22.0992 57.1746 22.0074 57.1515 21.9156 57.1283C21.8341 57.1077 21.7535 57.0863 21.672 57.0648C19.5713 56.5182 17.5392 55.7356 15.6146 54.7319C15.6051 54.7268 15.5948 54.7216 15.5854 54.7165C15.5296 54.6873 15.4747 54.659 15.4198 54.629C20.1293 53.5316 27.5715 51.801 34.0295 50.3184C34.2106 50.2773 34.3905 50.2361 34.5692 50.1949C36.9544 49.6475 39.1886 49.1378 41.0788 48.7114C41.2744 48.6677 41.466 48.6248 41.6536 48.5827C43.6845 48.1263 45.2615 47.7796 46.1169 47.6063C46.3475 47.5537 46.5806 47.5127 46.8153 47.4836L48.6007 50.2507L48.6042 50.2558Z" fill="#2F2E41"/>
<path d="M13.8522 21.8585C16.1699 21.8585 18.0489 19.9796 18.0489 17.6618C18.0489 15.344 16.1699 13.4651 13.8522 13.4651C11.5344 13.4651 9.65546 15.344 9.65546 17.6618C9.65546 19.9796 11.5344 21.8585 13.8522 21.8585Z" fill="#2F2E41"/>
<path d="M39.6318 20.6595C41.9496 20.6595 43.8285 18.7805 43.8285 16.4628C43.8285 14.145 41.9496 12.2661 39.6318 12.2661C37.314 12.2661 35.4351 14.145 35.4351 16.4628C35.4351 18.7805 37.314 20.6595 39.6318 20.6595Z" fill="#2F2E41"/>
<path d="M35.1355 14.6642C35.1356 13.6291 35.5183 12.6306 36.2099 11.8605C36.9016 11.0904 37.8534 10.6031 38.8825 10.4923C38.2964 10.4282 37.7034 10.4884 37.1422 10.6689C36.5809 10.8494 36.064 11.1461 35.625 11.5397C35.1861 11.9333 34.835 12.415 34.5947 12.9533C34.3543 13.4917 34.2301 14.0746 34.2301 14.6642C34.2301 15.2537 34.3543 15.8367 34.5947 16.375C34.835 16.9134 35.1861 17.3951 35.625 17.7887C36.064 18.1823 36.5809 18.479 37.1422 18.6594C37.7034 18.8399 38.2964 18.9001 38.8825 18.8361C37.8534 18.7252 36.9016 18.2379 36.2099 17.4678C35.5183 16.6978 35.1356 15.6992 35.1355 14.6642Z" fill="#2F2E41"/>
<path d="M9.16301 21.0564C8.4387 20.317 8.01322 19.336 7.96831 18.3019C7.9234 17.2678 8.26224 16.2536 8.91972 15.4541C8.4563 15.8186 8.07486 16.2766 7.80026 16.7983C7.52566 17.32 7.36407 17.8937 7.32601 18.482C7.28796 19.0704 7.37429 19.6601 7.57938 20.2129C7.78447 20.7656 8.10373 21.2689 8.51634 21.69C8.92895 22.1112 9.42566 22.4406 9.97411 22.6569C10.5226 22.8732 11.1104 22.9716 11.6994 22.9455C12.2884 22.9195 12.8653 22.7696 13.3925 22.5057C13.9197 22.2418 14.3854 21.8698 14.7592 21.4139C13.9465 22.055 12.9256 22.373 11.8926 22.3071C10.8597 22.2411 9.88752 21.7957 9.16301 21.0564Z" fill="#2F2E41"/>
<path d="M26.742 21.259C21.7753 21.259 17.749 23.6077 17.749 26.5049C17.749 27.8012 18.5583 28.986 19.8943 29.9013L21.6255 28.6469L21.1547 30.612C21.35 30.7026 21.5495 30.7902 21.7576 30.8712L24.3438 27.8538V31.5606C25.1369 31.6877 25.9388 31.7513 26.742 31.7508C31.7086 31.7508 35.7349 29.4021 35.7349 26.5049C35.7349 23.6077 31.7086 21.259 26.742 21.259Z" fill="#2F2E41"/>
<path d="M35.4352 16.4628C35.4352 16.4628 34.7834 19.4604 38.8563 20.6595L35.4352 16.4628Z" fill="#2F2E41"/>
<path d="M17.7491 17.0083C17.7491 17.0083 19.2479 20.3597 14.7514 21.8585L17.7491 17.0083Z" fill="#2F2E41"/>
<path d="M19.9718 36.1861C20.35 36.0802 20.4506 35.2587 20.1965 34.3511C19.9424 33.4435 19.4299 32.7936 19.0518 32.8995C18.6736 33.0054 18.573 33.8269 18.8271 34.7345C19.0812 35.642 19.5937 36.2919 19.9718 36.1861Z" fill="#D0CDE1"/>
<path d="M37.2859 33.1644C37.3438 32.2238 37.073 31.4416 36.6811 31.4175C36.2891 31.3934 35.9244 32.1364 35.8665 33.077C35.8086 34.0177 36.0793 34.7998 36.4713 34.8239C36.8632 34.8481 37.2279 34.1051 37.2859 33.1644Z" fill="#D0CDE1"/>
</g>
<defs>
<clipPath id="clip0">
<rect width="58" height="58" fill="white"/>
</clipPath>
</defs>
</svg>
